<?xml version="1.0" encoding="utf-8"?>
<!-- Generator: Adobe Illustrator 23.0.0, SVG Export Plug-In . SVG Version: 6.00 Build 0)  -->
<svg version="1.1" id="Capa_1" xmlns="http://www.w3.org/2000/svg" xmlns:xlink="http://www.w3.org/1999/xlink" x="0px" y="0px"
	 viewBox="0 0 314.1 314.1" style="enable-background:new 0 0 314.1 314.1;" xml:space="preserve">
<style type="text/css">
	.st0{fill:#FFFFFF;}
</style>
<g>
	<g id="_x33_56._Play">
		<g>
			<path class="st0" d="M293,78.5C249.6,3.4,153.6-22.3,78.5,21.1C3.4,64.4-22.3,160.4,21.1,235.5c43.3,75.1,139.4,100.8,214.5,57.5
				C310.6,249.6,336.4,153.6,293,78.5z M219.8,265.8c-60.1,34.7-136.9,14.1-171.6-46c-34.7-60.1-14.1-136.9,46-171.6
				c60.1-34.7,136.9-14.1,171.6,46C300.5,154.3,279.9,231.1,219.8,265.8z M213.6,150.7l-82.2-47.9c-7.5-4.4-13.5-0.9-13.5,7.8
				l0.4,95.2c0,8.7,6.2,12.2,13.7,7.9l81.6-47.1C221,162.1,221,155,213.6,150.7z"/>
		</g>
	</g>
</g>
</svg>
